<?xml version="1.0" encoding="utf-8"?>
<!-- Generator: Adobe Illustrator 21.0.2, SVG Export Plug-In . SVG Version: 6.00 Build 0)  -->
<svg version="1.1" id="Layer_1" xmlns="http://www.w3.org/2000/svg" xmlns:xlink="http://www.w3.org/1999/xlink" x="0px" y="0px"
	 viewBox="0 0 500 500" style="enable-background:new 0 0 500 500;" xml:space="preserve">
<style type="text/css">
	.st0{fill:#FFFFFF;}
	.st1{fill:#1C00DF;}
	.st2{fill:#71002B;}
</style>
<g>
	<g>
		<g>
			<path class="st0" d="M72.5,308c-5.3,0-9.5-4.3-9.5-9.5V128.5c0-5.3,4.3-9.5,9.5-9.5h231.9c5.3,0,9.5,4.3,9.5,9.5v169.9
				c0,5.3-4.3,9.5-9.5,9.5H72.5z"/>
			<path d="M304.5,125c2,0,3.5,1.6,3.5,3.5v169.9c0,2-1.6,3.5-3.5,3.5H72.5c-2,0-3.5-1.6-3.5-3.5V128.5c0-2,1.6-3.5,3.5-3.5H304.5
				 M304.5,113H72.5C64,113,57,120,57,128.5v169.9c0,8.6,7,15.5,15.5,15.5h231.9c8.6,0,15.5-7,15.5-15.5V128.5
				C320,120,313,113,304.5,113L304.5,113z"/>
		</g>
		<g>
			<rect x="155" y="314" width="70" height="40"/>
		</g>
		<g>
			<rect x="118" y="353" width="144" height="13"/>
		</g>
		<g>
			<polygon points="311,276 67,276 67,283 311,283 311,276 			"/>
		</g>
		<g>
			<path d="M190.5,286c-4.1,0-7.5,3.4-7.5,7.5s3.4,7.5,7.5,7.5s7.5-3.4,7.5-7.5S194.6,286,190.5,286L190.5,286z"/>
		</g>
	</g>
	<g>
		<g>
			<g>
				<path class="st0" d="M373.3,359c0-0.1-0.1-0.1-0.1-0.2c-0.2-0.3-0.3-0.5-0.5-0.8c-1.7-3.9-5.4-6.3-9.8-6.3c-3.8,0-7,1.7-9,4.8
					c-0.5,0.8-0.9,1.6-1.2,2.5h-72.4c-1.8,0-3.3-1.5-3.3-3.3V211.3c0-1.8,1.5-3.3,3.3-3.3h117.5c1.8,0,3.3,1.5,3.3,3.3v144.5
					c0,1.8-1.5,3.3-3.3,3.3H373.3z"/>
				<path class="st1" d="M395,214v139h-18.3c-3-4.5-8.1-7.3-13.9-7.3c-5.7,0-10.8,2.6-13.9,7.3h-66V214H395 M397.7,202H280.3
					c-5.1,0-9.3,4.1-9.3,9.3v144.5c0,5.1,4.1,9.3,9.3,9.3h78.2c-1.3-3,0.2-7.3,4.4-7.3c2.4,0,3.9,1.4,4.5,3.2
					c0.3,0.4,0.5,0.8,0.7,1.2c0,0,0,0.1,0.1,0.1c0.3,0.3,0.6,0.7,0.9,1.1c0.2,0.2,0.4,0.4,0.6,0.7c0.4,0.2,0.7,0.4,0.9,0.6
					c0.2,0.1,0.4,0.2,0.6,0.3h26.6c5.1,0,9.3-4.1,9.3-9.3V211.3C407,206.1,402.9,202,397.7,202L397.7,202z"/>
			</g>
		</g>
		<g>
			<polygon class="st1" points="398,341 281,341 281,354 398,354 398,341 			"/>
		</g>
		<g>
			<circle class="st0" cx="339" cy="354" r="4"/>
		</g>
	</g>
	<g>
		<g>
			<path class="st0" d="M375,360c-0.7,0-1.2-0.3-1.5-0.6c-0.1-0.1-0.2-0.3-0.3-0.4c-0.2-0.3-0.3-0.6-0.3-1V255c0-1.1,0.9-2,2-2H440
				c1.1,0,2,0.9,2,2V358c0,1.1-0.9,2-2,2H375z"/>
			<path class="st2" d="M436,259v95h-57v-95H436 M440,247H375c-4.4,0-8,3.6-8,8V358c0,1.7,0.5,3.3,1.4,4.6c0.1,0.2,0.3,0.3,0.4,0.5
				c1.5,1.8,3.7,2.9,6.2,2.9H440c4.4,0,8-3.6,8-8V255C448,250.6,444.4,247,440,247L440,247z"/>
		</g>
		<g>
			<rect x="376" y="347" class="st2" width="61" height="8"/>
		</g>
		<g>
			<circle class="st0" cx="407" cy="355" r="4"/>
		</g>
	</g>
</g>
<rect x="262" y="264" class="st0" width="9" height="53"/>
<rect x="399" y="216" transform="matrix(6.123234e-17 -1 1 6.123234e-17 161 646)" class="st0" width="9" height="53"/>
<path class="st0" d="M362.8,357.8c2,0,3.4,1,4.2,2.3V312h-9v53h0.5C357.2,362,358.6,357.8,362.8,357.8z"/>
<rect x="312" y="171" transform="matrix(-1.836970e-16 1 -1 -1.836970e-16 514 -119)" class="st0" width="9" height="53"/>
</svg>
