<?xml version="1.0" encoding="utf-8"?>
<!-- Generator: Adobe Illustrator 21.0.2, SVG Export Plug-In . SVG Version: 6.00 Build 0)  -->
<svg version="1.1" id="Layer_1" xmlns="http://www.w3.org/2000/svg" xmlns:xlink="http://www.w3.org/1999/xlink" x="0px" y="0px"
	 viewBox="0 0 500 500" style="enable-background:new 0 0 500 500;" xml:space="preserve">
<style type="text/css">
	.st0{fill:#F9FF15;}
	.st1{fill:#FF7E00;}
	.st2{fill:#FFFFFF;}
	.st3{fill:#ED1C24;}
	.st4{fill:#CFDEE7;}
	.st5{fill:#AA0E00;}
	.st6{fill:#33ADDD;}
	.st7{fill:none;stroke:#FFFFFF;stroke-miterlimit:10;}
	.st8{fill:none;stroke:#A9A79A;stroke-miterlimit:10;}
	.st9{fill:none;stroke:#D42B00;stroke-width:5;stroke-miterlimit:10;}
</style>
<g>
	<g>
		<g id="XMLID_2_">
			<g>
				<path class="st0" d="M217.1,303l-9.9,7.1c-13.2-11.4-23.3-17.8-40,8.8c-5.1,8.1-7.9,17.3-9.2,26.6l-14.2,10.2
					c0.3-7.9,1.4-15.7,3.6-23.4l24.9-39.7C187.9,280.1,200.7,290.6,217.1,303z"/>
				<path class="st1" d="M207.2,310.1L158,345.5c1.3-9.3,4.1-18.4,9.2-26.6C183.9,292.3,194,298.8,207.2,310.1z"/>
				<path class="st2" d="M296.4,333.4c-0.1,0.1-0.2,0.3-0.4,0.4l0,0C296.2,333.6,296.3,333.5,296.4,333.4z"/>
				<path class="st3" d="M399.6,109.2c0,0.1,0,0.1,0,0.2l-0.1-0.1c0,0,0-0.1,0-0.2L399.6,109.2z"/>
				<path class="st4" d="M224.8,208.6l-26.4,42.2L182,262.6c5.2-13.7,15.6-39.9,27.1-63.8L224.8,208.6z"/>
				<path class="st4" d="M306.5,316l-0.3,1.6L296,333.8l0,0c-0.5,0.5-1,1.1-1.5,1.6c-4.2,4.4-6.9,7.2-7.5,7.8c0,0-17.7-9.2-36-19.5
					l2.9-16.6L306.5,316z"/>
				<path class="st1" d="M249,335.7c13.7,6.3,21,13.2,5.6,37.9c-4,6.4-9.2,11.8-15,16.3L249,335.7z"/>
				<path class="st5" d="M342.3,280.9L342.3,280.9c-12.4,15.7-26.4,31.5-37.2,43.2l0,0C315.9,312.4,329.9,296.6,342.3,280.9z"/>
				<path class="st4" d="M332.9,275l9.4,5.9c-12.4,15.7-26.4,31.5-37.2,43.2l1.1-6.5L332.9,275z"/>
				<path class="st0" d="M172.2,292.6l-24.9,39.7c2-7.1,4.8-13.9,8.8-20.3C162,302.8,167.2,296.5,172.2,292.6z"/>
				<path class="st4" d="M354.2,265c-0.8,1.2-1.7,2.4-2.5,3.5C352.5,267.4,353.4,266.2,354.2,265z"/>
				<path class="st4" d="M399.5,109.3c0,0.1,0,0.1,0,0.2c-0.5,41.2-8,96.7-38.2,144.9c-2.1,3.4-4.5,7-7.1,10.6
					c-0.8,1.2-1.7,2.4-2.5,3.5c-2.7,3.7-5.5,7.4-8.5,11.2c-0.3,0.4-0.6,0.7-0.9,1.1l-9.4-5.9l-26.6,42.6l0.3-1.6l-52.5-9l-2.9,16.6
					c-7.2-4.1-14.5-8.3-20.8-12.3c-4.1-2.6-8.5-5.5-12.8-8.6l12.9-9.3l-31.1-43.3l-1,0.7l26.4-42.2l-15.7-9.8
					c5.2-10.9,10.7-21.3,16-29.9c7.1-11.3,15.1-21.6,23.6-31.1c4-4.4,8.1-8.6,12.3-12.7c1.2-1.1,2.4-2.2,3.5-3.3
					c0,0,0.1-0.1,0.1-0.1c1.2-1.1,2.4-2.2,3.6-3.3c1.2-1.1,2.5-2.2,3.7-3.2C294.2,96,318,81.7,338.7,71.3L399.5,109.3z M360.2,168.9
					c10-16,5.1-37-10.8-47c-16-10-37-5.2-47,10.8c-10,16-5.1,37,10.8,47C329.2,189.7,350.2,184.9,360.2,168.9z"/>
				<path class="st0" d="M239.6,389.9l-3.1,17.9c-34.4,20.8-78.6,22.8-78.6,22.8s-15.9-36.9-14.2-74.9l14.2-10.2
					c-4.5,33.2,10.6,68.3,10.6,68.3S211.6,411.8,239.6,389.9z"/>
				<path class="st3" d="M395.1,48.8c0,0,4.9,24.8,4.5,60.4l-0.1-0.1c0.4-35.5-4.4-60.3-4.4-60.3s-16.8,4.4-40.7,15
					C378.3,53.3,395.1,48.8,395.1,48.8z"/>
				<path class="st2" d="M294.6,335.4c0.5-0.5,1-1,1.5-1.6C295.5,334.3,295,334.9,294.6,335.4z"/>
				<path class="st4" d="M264.6,121.7c1.2-1.1,2.4-2.2,3.6-3.3C267,119.5,265.8,120.6,264.6,121.7z"/>
				<path class="st2" d="M182.7,275.8l-0.1,0.1c-2.7-2.3-4.3-3.6-4.3-3.6s1.3-3.6,3.6-9.7l0.1-0.1c-2.3,6-3.6,9.6-3.6,9.6
					S180,273.5,182.7,275.8z"/>
				<path class="st2" d="M297.5,332.2c0.7-0.7,1.4-1.5,2.1-2.2C298.9,330.7,298.2,331.5,297.5,332.2z"/>
				<path class="st0" d="M262.8,330.3c-2.8-1.5-5.7-3.2-8.7-4.8C257.2,327,260.1,328.6,262.8,330.3z"/>
				<path class="st6" d="M349.4,121.9c16,10,20.8,31,10.8,47c-10,16-31,20.8-47,10.8c-16-10-20.8-31-10.8-47
					C312.4,116.8,333.4,111.9,349.4,121.9z"/>
				<path class="st2" d="M217.5,302.7l-0.1,0.1c-14-9.9-27.9-21.2-34.7-26.9l0.1-0.1C189.5,281.5,203.5,292.8,217.5,302.7z"/>
				<path class="st5" d="M379.1,349.6l-63.7,101.7L286.3,433l18.8-108.9c10.8-11.7,24.8-27.5,37.2-43.2l14.2,8.9l-0.5,0.2l20.5,60.5
					L379.1,349.6z"/>
				<path class="st2" d="M217.4,302.8l-0.3,0.2c-16.3-12.4-29.1-22.9-44.8-10.4l10.4-16.6C189.5,281.6,203.4,292.9,217.4,302.8z"/>
				<path class="st2" d="M287.1,343.1c-0.1,0.1-0.1,0.1-0.1,0.1s-10.8-5.6-24.2-12.9c-2.7-1.7-5.6-3.2-8.7-4.8
					c-0.1,0-0.1-0.1-0.2-0.1c-0.9-0.5-1.9-1.1-2.9-1.6l0-0.1C269.4,333.9,287.1,343.1,287.1,343.1z"/>
				<path class="st3" d="M395.1,48.9c0,0,4.8,24.8,4.4,60.3l-60.7-37.9c5.4-2.7,10.6-5.2,15.6-7.4C378.3,53.3,395.1,48.9,395.1,48.9
					z"/>
				<path class="st0" d="M251,323.9l-2,11.8c-7-3.2-15.7-6.2-23.8-11.3c-6.9-4.3-12.7-9.7-18-14.3l9.9-7.1
					c4.6,3.5,9.5,7.2,14.8,10.5C238.4,317.6,245,320.8,251,323.9z"/>
				<path class="st4" d="M261,125.1c1.2-1.1,2.4-2.2,3.5-3.3C263.4,122.9,262.2,124,261,125.1z"/>
				<path class="st4" d="M338.8,71.2L338.8,71.2c0,0.1,0,0.1-0.1,0.1C318,81.7,294.2,96,271.9,115.2C294.2,96,318,81.6,338.8,71.2z"
					/>
				<path class="st4" d="M199.3,250.1l31.1,43.3l-12.9,9.3c-14-9.9-28-21.2-34.8-26.9l15.6-25L199.3,250.1z"/>
				<path class="st5" d="M201.1,193.8l8,5c-11.5,23.9-21.9,50.1-27.1,63.9l-79.1,56.9l-29-18.2l63.6-101.7l0.3,2.6l63.4-8
					L201.1,193.8z"/>
				<path class="st5" d="M209,198.7L209,198.7c-11.4,23.9-21.8,50.1-27,63.8l-0.1,0.1C187.2,248.9,197.5,222.7,209,198.7z"/>
				<path class="st4" d="M198.4,250.8l-15.6,25c-2.7-2.3-4.3-3.6-4.3-3.6s1.3-3.6,3.6-9.6L198.4,250.8z"/>
				<path class="st4" d="M306.2,317.5l-1.1,6.5c-1.9,2.1-3.7,4-5.3,5.8c0,0-0.1,0.1-0.1,0.1c-0.7,0.8-1.4,1.5-2.1,2.2
					c-0.4,0.4-0.8,0.8-1.1,1.2c-0.1,0.1-0.2,0.2-0.4,0.4L306.2,317.5z"/>
				<path class="st1" d="M249,335.7l-9.3,54.2c-28,21.9-71,23.9-71,23.9s-15.1-35.2-10.6-68.3l49.2-35.3c5.3,4.6,11.1,10,18,14.3
					C233.3,329.5,242,332.5,249,335.7z"/>
				<path class="st2" d="M305.1,324.1L305.1,324.1c-1.9,2.1-3.7,4-5.3,5.8C301.4,328,303.2,326.1,305.1,324.1z"/>
				<path class="st0" d="M262.8,330.3c14.9,9.2,21.2,20.6,2.7,50.1c-7.3,11.6-17.6,20.5-28.9,27.4l3.1-17.9c5.8-4.5,11-9.9,15-16.3
					c15.4-24.7,8.1-31.6-5.6-37.9l2-11.8c1,0.5,1.9,1,2.9,1.5c0.1,0,0.1,0.1,0.2,0.1C257.1,327.1,260,328.7,262.8,330.3z"/>
				<path class="st2" d="M251.1,323.7c0.9,0.5,1.9,1.1,2.9,1.6c-0.9-0.5-1.9-1-2.9-1.5L251.1,323.7z"/>
				<path class="st3" d="M338.8,71.2l60.7,37.9c0,0.1,0,0.1,0,0.2l-60.8-38C338.8,71.3,338.8,71.3,338.8,71.2z"/>
				<path class="st4" d="M399.6,109.2l0.1,0.1c-0.6,41.2-8.1,96.8-38.3,145c-2.2,3.4-4.6,7.1-7.2,10.7c2.6-3.6,5-7.2,7.1-10.6
					c30.2-48.2,37.7-103.7,38.2-144.9c0-0.1,0-0.1,0-0.2l0.1,0.1C399.6,109.3,399.6,109.3,399.6,109.2z"/>
			</g>
			<g>
				<polyline class="st7" points="102.8,319.5 73.8,301.3 137.4,199.7 				"/>
				<line class="st7" x1="182.6" y1="275.9" x2="172.2" y2="292.6"/>
				<polyline class="st7" points="201.1,193.8 209,198.7 209.1,198.8 				"/>
				<polyline class="st7" points="201.1,193.8 201.1,194.3 137.7,202.3 137.4,199.7 				"/>
				<polyline class="st7" points="102.8,319.5 181.9,262.6 182,262.6 				"/>
				<polyline class="st7" points="217.5,302.7 217.4,302.8 217.1,303 				"/>
				<polyline class="st7" points="342.3,280.9 342.3,280.9 356.5,289.8 				"/>
				<polyline class="st7" points="379.1,349.6 315.5,451.3 286.3,433 				"/>
				<polyline class="st7" points="305.1,324.1 305.1,324.1 286.3,433 				"/>
				<polyline class="st7" points="251,323.9 251.1,323.7 251.1,323.6 				"/>
				<polyline class="st7" points="379.1,349.6 376.5,350.5 356,289.9 356.5,289.8 				"/>
				<path class="st8" d="M262.8,330.3c13.4,7.4,24.2,12.9,24.2,12.9s0,0,0.1-0.1c0.5-0.6,3.3-3.4,7.5-7.8c0.5-0.5,1-1,1.5-1.6
					c0.1-0.1,0.2-0.3,0.4-0.4c0.4-0.4,0.8-0.8,1.1-1.2c0.7-0.7,1.4-1.5,2.1-2.2c0,0,0.1-0.1,0.1-0.1c1.7-1.8,3.5-3.7,5.3-5.7
					c10.8-11.7,24.8-27.5,37.2-43.2c0.3-0.4,0.6-0.7,0.9-1.1c3-3.8,5.8-7.5,8.5-11.2c0.9-1.2,1.7-2.4,2.5-3.5
					c2.6-3.6,5-7.2,7.1-10.6c30.2-48.2,37.7-103.7,38.2-144.9c0-0.1,0-0.1,0-0.2c0,0,0-0.1,0-0.2c0.4-35.5-4.4-60.3-4.4-60.3
					s-16.8,4.4-40.7,15c-4.9,2.2-10.1,4.6-15.6,7.4c0,0-0.1,0-0.1,0.1C318,81.7,294.2,96,271.9,115.2c-1.2,1.1-2.5,2.1-3.7,3.2
					c-1.2,1.1-2.4,2.2-3.6,3.3c0,0,0,0.1-0.1,0.1c-1.2,1.1-2.4,2.2-3.5,3.3c-4.2,4-8.3,8.3-12.3,12.7c-8.6,9.5-16.6,19.9-23.7,31.2
					c-5.3,8.5-10.8,18.9-16,29.7c-11.5,23.9-21.9,50.1-27.1,63.9c-2.3,6-3.6,9.7-3.6,9.7s1.6,1.4,4.3,3.6c6.8,5.7,20.8,17,34.7,26.9
					c4.3,3.1,8.7,6,12.8,8.6c6.3,4,13.6,8.2,20.9,12.3c0.9,0.5,1.9,1.1,2.9,1.6"/>
				<polyline class="st8" points="399.6,109.4 399.5,109.3 338.7,71.3 				"/>
				<path class="st9" d="M302.4,132.7c10-16,31-20.8,47-10.8c16,10,20.8,31,10.8,47c-10,16-31,20.8-47,10.8
					C297.3,169.7,292.4,148.7,302.4,132.7z"/>
				<path class="st8" d="M262.8,330.3c14.9,9.2,21.2,20.6,2.7,50.1c-7.3,11.6-17.6,20.5-28.9,27.4c-34.4,20.8-78.6,22.8-78.6,22.8
					s-15.9-36.9-14.2-74.9c0.3-7.9,1.4-15.7,3.6-23.4c2-7.1,4.8-13.9,8.8-20.3c5.8-9.2,11-15.5,16-19.4c15.7-12.5,28.5-2,44.8,10.4
					c4.6,3.5,9.5,7.2,14.8,10.5c6.5,4.1,13.1,7.3,19.1,10.4c1,0.5,1.9,1,2.9,1.5c0.1,0,0.1,0.1,0.2,0.1
					C257.2,327,260.1,328.6,262.8,330.3z"/>
				<path class="st8" d="M249,335.7c13.7,6.3,21,13.2,5.6,37.9c-4,6.4-9.2,11.8-15,16.3c-28,21.9-71,23.9-71,23.9
					s-15.1-35.2-10.6-68.3c1.3-9.3,4.1-18.4,9.2-26.6c16.7-26.6,26.8-20.1,40-8.8c5.3,4.6,11.1,10,18,14.3
					C233.3,329.5,242,332.5,249,335.7z"/>
			</g>
		</g>
	</g>
</g>
</svg>
