<?xml version="1.0" encoding="utf-8"?>
<!-- Generator: Adobe Illustrator 21.0.2, SVG Export Plug-In . SVG Version: 6.00 Build 0)  -->
<svg version="1.1" id="Layer_1" xmlns="http://www.w3.org/2000/svg" xmlns:xlink="http://www.w3.org/1999/xlink" x="0px" y="0px"
	 viewBox="0 0 500 500" style="enable-background:new 0 0 500 500;" xml:space="preserve">
<style type="text/css">
	.st0{fill:#FFFFFF;stroke:#000000;stroke-miterlimit:10;}
	.st1{fill:#FFFFFF;}
	.st2{fill:none;stroke:#000000;stroke-miterlimit:10;}
	.st3{fill:#168806;}
	.st4{fill:#106605;}
</style>
<path class="st0" d="M260.5,115"/>
<g>
	<g>
		<g>
			<path class="st1" d="M166.5,170"/>
		</g>
	</g>
	<g>
		<g>
			<path class="st2" d="M166.5,170"/>
		</g>
	</g>
</g>
<path class="st3" d="M249.8,453c0,0-171.8-108-171.8-241.3c0-42.3-1.3-79.8,13.5-114.7l157.1-49.6l159.6,49.6
	c14.7,34.9,13.5,72.3,13.5,114.7C421.6,345,249.8,453,249.8,453"/>
<path class="st4" d="M249.8,412.5c0,0-137.4-86.4-137.4-193c0-33.9-1-63.8,10.8-91.7l125.6-39.7l127.6,39.7
	c11.8,27.9,10.8,57.9,10.8,91.7C387.2,326,249.8,412.5,249.8,412.5"/>
</svg>
