<?xml version="1.0" encoding="utf-8"?>
<!-- Generator: Adobe Illustrator 26.0.1, SVG Export Plug-In . SVG Version: 6.00 Build 0)  -->
<svg version="1.1" id="Calque_1" xmlns="http://www.w3.org/2000/svg" xmlns:xlink="http://www.w3.org/1999/xlink" x="0px" y="0px"
	 viewBox="0 0 1366 768" style="enable-background:new 0 0 1366 768;" xml:space="preserve">
<style type="text/css">
	.st0{fill:#14074F;}
	.st1{fill:url(#SVGID_1_);}
	.st2{fill:url(#SVGID_00000076565175848746825480000007493976407267928234_);}
	.st3{fill:url(#SVGID_00000163787510324580607330000004920854676269274263_);}
	.st4{fill:url(#SVGID_00000139259511189263809250000017316564562877600679_);}
	.st5{fill:url(#SVGID_00000104685773565356028250000011701980606477701534_);}
	.st6{fill:url(#SVGID_00000118367203421025970510000014330770909031565482_);}
	.st7{fill:url(#SVGID_00000153674406130658958510000002809429368109472132_);}
	.st8{fill:url(#SVGID_00000042008925180637403140000015850043049350036374_);}
	.st9{fill:url(#SVGID_00000079458398867502077210000013714645403239664768_);}
</style>
<g>
	<rect class="st0" width="1366" height="768"/>
</g>
<linearGradient id="SVGID_1_" gradientUnits="userSpaceOnUse" x1="1109.8214" y1="180.9918" x2="1367.0825" y2="49.319">
	<stop  offset="0" style="stop-color:#790090"/>
	<stop  offset="0.2203" style="stop-color:#75018E"/>
	<stop  offset="0.4227" style="stop-color:#6A0389"/>
	<stop  offset="0.6181" style="stop-color:#580780"/>
	<stop  offset="0.809" style="stop-color:#3D0D74"/>
	<stop  offset="0.9953" style="stop-color:#1C1464"/>
	<stop  offset="1" style="stop-color:#1B1464"/>
</linearGradient>
<path class="st1" d="M1367-0.36V247h-244.41c-24.62,0-44.59-24.32-44.59-54.3V-0.36H1367z"/>
<linearGradient id="SVGID_00000174576949765822892520000015088769222421070726_" gradientUnits="userSpaceOnUse" x1="140.0395" y1="136.6081" x2="250.0008" y2="-56.971" gradientTransform="matrix(-1 0 0 1 371 0)">
	<stop  offset="0" style="stop-color:#7E0090"/>
	<stop  offset="0.1824" style="stop-color:#73028B"/>
	<stop  offset="0.5069" style="stop-color:#54087D"/>
	<stop  offset="0.933" style="stop-color:#231268"/>
	<stop  offset="1" style="stop-color:#1B1464"/>
</linearGradient>
<path style="fill:url(#SVGID_00000174576949765822892520000015088769222421070726_);" d="M40,0v103.86
	C40,123.27,55.73,139,75.14,139h220.72c19.41,0,35.14-15.73,35.14-35.14V0L40,0z"/>
<linearGradient id="SVGID_00000178894863756208787410000008816807024132108222_" gradientUnits="userSpaceOnUse" x1="934.4404" y1="418.8616" x2="994.3276" y2="388.2098">
	<stop  offset="0" style="stop-color:#8C0994"/>
	<stop  offset="0.2275" style="stop-color:#900997"/>
	<stop  offset="0.4365" style="stop-color:#9B08A1"/>
	<stop  offset="0.6382" style="stop-color:#AE06B1"/>
	<stop  offset="0.8342" style="stop-color:#C803C8"/>
	<stop  offset="1" style="stop-color:#E400E1"/>
</linearGradient>
<path style="fill:url(#SVGID_00000178894863756208787410000008816807024132108222_);" d="M984.2,438h-43.4
	c-6.52,0-11.8-5.28-11.8-11.8v-43.4c0-6.52,5.28-11.8,11.8-11.8h43.4c6.52,0,11.8,5.28,11.8,11.8v43.4
	C996,432.72,990.72,438,984.2,438z"/>
<linearGradient id="SVGID_00000180365894161006038540000011884692207246161302_" gradientUnits="userSpaceOnUse" x1="0" y1="404" x2="131.9489" y2="404">
	<stop  offset="0" style="stop-color:#140775"/>
	<stop  offset="1" style="stop-color:#3E348E"/>
</linearGradient>
<path style="fill:url(#SVGID_00000180365894161006038540000011884692207246161302_);" d="M72,362.62v82.76
	c0,9.18-7.44,16.62-16.62,16.62H0V346h55.38C64.56,346,72,353.44,72,362.62z"/>
<linearGradient id="SVGID_00000016069425372240051960000012235673429803747505_" gradientUnits="userSpaceOnUse" x1="1357.0924" y1="378.5211" x2="1191.7245" y2="513.4869">
	<stop  offset="0" style="stop-color:#140775"/>
	<stop  offset="1" style="stop-color:#3E348E"/>
</linearGradient>
<path style="fill:url(#SVGID_00000016069425372240051960000012235673429803747505_);" d="M1366.5,297h-122.38
	c-12.22,0-22.12,9.9-22.12,22.12v209.76c0,12.22,9.9,22.12,22.12,22.12h122.38"/>
<linearGradient id="SVGID_00000080911335569766109680000008280114351876346756_" gradientUnits="userSpaceOnUse" x1="532.4859" y1="303.8374" x2="687.2264" y2="236.1659">
	<stop  offset="0" style="stop-color:#140775"/>
	<stop  offset="0.957" style="stop-color:#140775"/>
	<stop  offset="1" style="stop-color:#140775"/>
</linearGradient>
<path style="fill:url(#SVGID_00000080911335569766109680000008280114351876346756_);" d="M660.96,357H545.04
	c-14.38,0-26.04-11.66-26.04-26.04V215.04c0-14.38,11.66-26.04,26.04-26.04h115.92c14.38,0,26.04,11.66,26.04,26.04v115.92
	C687,345.34,675.34,357,660.96,357z"/>
<linearGradient id="SVGID_00000057119374316551180520000003055934060105757831_" gradientUnits="userSpaceOnUse" x1="215.4404" y1="236.8616" x2="275.3276" y2="206.2098">
	<stop  offset="0" style="stop-color:#8C0994"/>
	<stop  offset="0.2275" style="stop-color:#900997"/>
	<stop  offset="0.4365" style="stop-color:#9B08A1"/>
	<stop  offset="0.6382" style="stop-color:#AE06B1"/>
	<stop  offset="0.8342" style="stop-color:#C803C8"/>
	<stop  offset="1" style="stop-color:#E400E1"/>
</linearGradient>
<path style="fill:url(#SVGID_00000057119374316551180520000003055934060105757831_);" d="M265.2,256h-43.4
	c-6.52,0-11.8-5.28-11.8-11.8v-43.4c0-6.52,5.28-11.8,11.8-11.8h43.4c6.52,0,11.8,5.28,11.8,11.8v43.4
	C277,250.72,271.72,256,265.2,256z"/>
<linearGradient id="SVGID_00000001624406761018226040000002979722599586694847_" gradientUnits="userSpaceOnUse" x1="282.4405" y1="644.8616" x2="342.3276" y2="614.2098">
	<stop  offset="0" style="stop-color:#8C0994"/>
	<stop  offset="0.2275" style="stop-color:#900997"/>
	<stop  offset="0.4365" style="stop-color:#9B08A1"/>
	<stop  offset="0.6382" style="stop-color:#AE06B1"/>
	<stop  offset="0.8342" style="stop-color:#C803C8"/>
	<stop  offset="1" style="stop-color:#E400E1"/>
</linearGradient>
<path style="fill:url(#SVGID_00000001624406761018226040000002979722599586694847_);" d="M332.2,664h-43.4
	c-6.52,0-11.8-5.28-11.8-11.8v-43.4c0-6.52,5.28-11.8,11.8-11.8h43.4c6.52,0,11.8,5.28,11.8,11.8v43.4
	C344,658.72,338.72,664,332.2,664z"/>
<linearGradient id="SVGID_00000052073014962768793200000009988175873686838410_" gradientUnits="userSpaceOnUse" x1="-564.9605" y1="265.0881" x2="-454.9992" y2="71.509" gradientTransform="matrix(-1 0 0 -1 371 898.48)">
	<stop  offset="0" style="stop-color:#7E0090"/>
	<stop  offset="0.1824" style="stop-color:#73028B"/>
	<stop  offset="0.5069" style="stop-color:#54087D"/>
	<stop  offset="0.933" style="stop-color:#231268"/>
	<stop  offset="1" style="stop-color:#1B1464"/>
</linearGradient>
<path style="fill:url(#SVGID_00000052073014962768793200000009988175873686838410_);" d="M745,770V666.14
	c0-19.41,15.73-35.14,35.14-35.14h220.72c19.41,0,35.14,15.73,35.14,35.14V770H745z"/>
</svg>
